<?xml version="1.0" encoding="utf-8"?>
<!-- Generator: Adobe Illustrator 28.1.0, SVG Export Plug-In . SVG Version: 6.00 Build 0)  -->
<svg version="1.1" id="THW.svg_xA0_Bild_00000085229908583871690990000016594259705661881988_"
	 xmlns="http://www.w3.org/2000/svg" xmlns:xlink="http://www.w3.org/1999/xlink" x="0px" y="0px" viewBox="0 0 233.52 241.2"
	 style="enable-background:new 0 0 233.52 241.2;" xml:space="preserve">
<style type="text/css">
	.st0{fill:#233E8B;}
	.st1{fill:#223D8A;}
	.st2{fill:#FFE314;}
</style>
<g>
	<g>
		<path class="st0" d="M233.76,52.03c-6.03,0-12.05,0-18.17,0c0-2.72,0-5.33,0-8.01c0.76-0.27,1.61,0.02,2.27-0.13
			c-2.64-2.69-5.32-5.42-8.08-8.23c0,2.73,0,5.41,0,8.15c1,0.26,2.09-0.03,3.23,0.17c0,2.6,0,5.21,0,7.92c-5.55,0-11.12,0-16.79,0
			c0-2.68,0-5.41,0-8.27c1.09,0,2.22,0,3.43,0c0-7.25,0-14.38,0-21.58c-1.13,0-2.23,0-3.43,0c0-2.81,0-5.53,0-8.32
			c5.48,0,10.97,0,16.52,0c0,2.73,0,5.43,0,8.28c-1.01,0-1.99,0-3,0c0,2.57,0,4.99,0,7.75c2.82-2.62,5.46-5.08,8.3-7.72
			c-0.97,0-1.67,0-2.45,0c0-2.79,0-5.49,0-8.28c5.67,0,11.39,0,17.17,0c0,2.71,0,5.41,0,8.21c-0.71,0-1.41,0-2.1,0
			c-3.97,3.5-7.89,6.96-11.92,10.52c3.96,3.74,7.87,7.42,11.83,11.16c1.05,0,2.12,0,3.2,0C233.76,46.43,233.76,49.23,233.76,52.03z"
			/>
		<path class="st1" d="M138.4,191.77c-3.15,1.71-6.23,3.57-9.69,5.02c-3.99-4.81-8-9.66-12.06-14.55c-4.44,1.65-8.96,2.9-13.79,3.7
			c-1.04,6.16-2.09,12.36-3.16,18.65c-5.72,0.56-11.4,0.54-17.22,0.02c-1.05-6.21-2.1-12.41-3.16-18.66
			c-4.71-0.81-9.26-2.01-13.79-3.71c-4,4.83-8.02,9.68-12.07,14.56c-5.3-2.32-10.16-5.26-14.93-8.57c2.2-5.88,4.38-11.73,6.61-17.69
			c-3.62-3.08-7.09-6.36-10.09-10.16c-5.95,2.21-11.85,4.39-17.79,6.6c-3.34-4.71-6.22-9.6-8.59-14.9
			c4.86-4.02,9.71-8.03,14.58-12.06c-1.67-4.48-2.89-9.01-3.7-13.78c-6.19-1.05-12.4-2.09-18.68-3.15
			c-0.52-5.71-0.48-11.36-0.02-17.2c6.18-1.04,12.38-2.09,18.68-3.15c0.84-4.67,2.01-9.24,3.72-13.78
			c-4.85-4.01-9.71-8.02-14.59-12.06c2.34-5.26,5.26-10.13,8.59-14.9c5.91,2.19,11.81,4.38,17.78,6.6
			c2.99-3.71,6.38-7.03,10.11-10.13c-2.2-5.89-4.39-11.77-6.62-17.72c4.72-3.29,9.6-6.21,14.92-8.57c4,4.83,8,9.65,12.06,14.55
			c4.46-1.62,9.02-2.87,13.81-3.68c1.05-6.21,2.1-12.41,3.16-18.66c5.78-0.53,11.47-0.53,17.23,0c1.06,6.25,2.11,12.46,3.16,18.66
			c4.77,0.8,9.3,2.03,13.79,3.69c4.02-4.85,8.04-9.7,12.06-14.55c4.75,2.03,9.07,4.68,13.35,7.38c0.53,0.41,1.05,0.82,1.58,1.22
			c-2.21,5.91-4.39,11.75-6.6,17.66c3.71,3.08,7.1,6.44,10.15,10.15c5.96-2.22,11.84-4.41,17.72-6.59c0.34,0.45,0.6,0.8,0.86,1.15
			c2.42,3.6,4.59,7.34,6.63,11.17c0.35,0.83,0.71,1.67,1.1,2.6c-4.84,4-9.69,8.01-14.57,12.04c1.67,4.49,2.92,9.04,3.71,13.78
			c6.17,1.16,12.4,1.71,18.83,2.66c0,1.44,0,2.82,0,4.21c0,4.03,0.01,8.06,0.01,12.08c-0.34,0.48,0.21,1.37-0.72,1.57
			c-3.7,0.6-7.4,1.19-11.1,1.8c-2.35,0.39-4.7,0.79-7.03,1.19c-0.77,4.78-2.05,9.29-3.7,13.8c3.28,2.68,6.55,5.36,9.82,8.03
			c1.58,1.34,3.15,2.67,4.76,4.03c-2.35,5.27-5.24,10.15-8.55,14.84c-1.54-0.54-3.04-1.06-4.53-1.58c-4.18-1.67-8.4-3.23-12.65-4.71
			c-0.58-0.52-0.82,0.02-1.12,0.37c-2.47,2.92-5.16,5.63-8.03,8.16c-0.53,0.46-1.18,0.8-1.56,1.51c1.44,3.76,2.89,7.54,4.33,11.31
			c0.74,2.08,1.49,4.16,2.23,6.26C141.83,189.46,140.11,190.61,138.4,191.77z M148.2,123.94c0.05-0.15,0.13-0.3,0.15-0.45
			c1.78-13.73-0.43-26.68-7.61-38.63c-3.41-5.69-7.6-10.72-12.81-14.86c-2.93-2.62-6.28-4.62-9.71-6.52c0-4.25,0-8.44,0-12.69
			c-18.13,0-36.2,0-54.37,0c0,4.3,0,8.52,0,12.74c-0.83,0.47-1.62,0.86-2.35,1.33C41.28,77.74,31.67,96.2,33.62,120.07
			c1.42,17.41,9.75,31.36,24.02,41.5c2.93,2.08,5.19,4.45,6.94,7.5c2.41,4.18,4.93,8.29,7.48,12.56c2.21-3.65,4.34-7.18,6.48-10.72
			c8.41,1.79,16.73,1.78,25.08,0c2.15,3.57,4.28,7.08,6.46,10.69c3.31-5.5,6.52-10.82,9.7-16.16c0.48-0.81,1.07-1.43,1.88-1.94
			c9.32-5.9,16.92-13.43,21.77-23.48C145.9,134.93,147.57,129.59,148.2,123.94z"/>
		<path class="st2" d="M181.47,121.68c0-4.03-0.01-8.06-0.01-12.08c0-1.39,0-2.78,0-4.21c-6.43-0.94-12.66-1.5-18.83-2.66
			c-0.79-4.74-2.05-9.29-3.71-13.78c4.88-4.04,9.73-8.04,14.57-12.04c-0.39-0.93-0.75-1.76-1.1-2.6
			c14.1-7.29,28.19-14.58,42.29-21.87c0.3,0.49-0.03,0.78-0.16,1.07c-10.85,22.45-21.71,44.89-32.57,67.33
			C181.8,121.13,181.63,121.4,181.47,121.68z"/>
		<path class="st2" d="M165.76,63.15c-0.26-0.35-0.52-0.7-0.86-1.15c-5.87,2.19-11.76,4.37-17.72,6.59
			c-3.05-3.71-6.44-7.07-10.15-10.15c2.21-5.91,4.39-11.76,6.6-17.66c-0.53-0.41-1.05-0.82-1.58-1.22c2.6-5.65,5.2-11.31,7.84-17.04
			c4.51-2.29,9.06-4.59,13.61-6.9c0,2.1,0,4.2,0,6.43c1.32,0,2.45,0,3.56,0c0,7.25,0,14.37,0,21.57c-1.19,0-2.29,0-3.44,0
			c0,2.82,0,5.55,0,8.43c2.41,0,4.76,0,7.1,0C169.07,55.74,167.41,59.45,165.76,63.15z"/>
		<path class="st0" d="M170.72,52.04c-2.34,0-4.69,0-7.1,0c0-2.88,0-5.61,0-8.43c1.15,0,2.26,0,3.44,0c0-7.21,0-14.33,0-21.57
			c-1.11,0-2.25,0-3.56,0c0-2.23,0-4.33,0-6.43c0.03-0.59,0.06-1.17,0.09-1.84c1.3-0.26,2.63,0,3.94-0.14c6.81,0,13.62,0,20.44,0
			c1.66,0,3.32,0,5.03,0c0,4.32,0,8.48,0,12.69c-3.15,0-6.24,0-9.4,0c-0.05-0.83-0.09-1.66-0.14-2.48c0.03-0.42,0.19-0.85-0.05-1.26
			c-2.02,0-4.03,0-6.04,0c0,1.93,0,3.78,0,5.68c1.4,0,2.74,0,4.09,0c1.47,0,2.95,0,4.51,0c0,3.03,0,6,0,9.08c-2.74,0-5.55,0-8.45,0
			c0,2.11,0,4.11,0,6.23c1.2,0,2.42,0,3.71,0c0,2.83,0,5.56,0,8.49C177.71,52.04,174.22,52.04,170.72,52.04z"/>
		<path class="st2" d="M138.4,191.77c1.72-1.16,3.43-2.31,5.22-3.51c-0.75-2.09-1.49-4.18-2.23-6.26
			c2.12-7.12,4.25-14.23,6.37-21.35c4.25,1.48,8.47,3.05,12.65,4.71c-9.58,19.79-19.16,39.57-28.74,59.36
			c-2.26,4.67-4.51,9.34-6.78,14c-0.18,0.36-0.22,0.86-0.85,1.06c1.06-3.54,2.08-6.98,3.12-10.43c3.69-12.3,7.39-24.59,11.09-36.89
			C138.31,192.24,138.35,192,138.4,191.77z"/>
		<path class="st2" d="M168.74,148.07c-3.27-2.67-6.54-5.35-9.82-8.03c1.65-4.5,2.94-9.02,3.7-13.8c2.33-0.4,4.68-0.8,7.03-1.19
			c3.7-0.61,7.4-1.2,11.1-1.8C176.74,131.52,172.74,139.79,168.74,148.07z"/>
		<path class="st2" d="M187.96,13.63c-6.81,0-13.62,0-20.44,0c1.19-0.64,2.37-1.29,3.57-1.91c6.96-3.55,13.92-7.08,20.88-10.62
			c0.45-0.23,0.94-0.75,1.51,0.01C191.66,5.27,189.81,9.45,187.96,13.63z"/>
		<path class="st2" d="M181.45,28.25c-1.34,0-2.69,0-4.09,0c0-1.9,0-3.75,0-5.68c2,0,4.01,0,6.04,0c0.25,0.41,0.08,0.84,0.05,1.26
			C182.66,25.25,182.05,26.75,181.45,28.25z"/>
		<path class="st2" d="M115.33,97.1c2.55-5.45,5.1-10.9,7.64-16.35c1.67-3.58,3.31-7.17,4.97-10.75c5.21,4.14,9.39,9.18,12.81,14.86
			c7.18,11.96,9.39,24.91,7.61,38.63c-0.02,0.15-0.1,0.3-0.15,0.45c-2.33,1.18-4.67,2.36-7,3.55c-0.04-0.86-0.08-1.72-0.12-2.6
			c-6.9,0-13.71,0-20.57,0c0,3.42,0,6.79,0,10.26c0.77,0,1.47,0,2.37,0c-0.64,1.02-1.18,1.88-1.72,2.74
			c-5.65,2.89-11.31,5.79-16.96,8.68c-2.28-3.65-4.53-7.31-6.64-11.06c1-2.09,2.01-4.19,3.01-6.28c0,1.97,0,3.95,0,5.92
			c5.86,0,11.51,0,17.2,0c0-3.44,0-6.81,0-10.3c-0.83,0-1.61,0-2.33,0c-0.28-0.48-0.17-0.89-0.17-1.28c-0.01-4.43-0.01-8.86,0-13.29
			C115.28,105.88,115.31,101.49,115.33,97.1z"/>
		<path class="st0" d="M115.33,97.1c-0.02,4.39-0.05,8.78-0.05,13.17c-0.01,4.43-0.01,8.86,0,13.29c0,0.39-0.11,0.79,0.17,1.28
			c0.72,0,1.5,0,2.33,0c0,3.49,0,6.86,0,10.3c-5.69,0-11.34,0-17.2,0c0-1.97,0-3.94,0-5.92c0-1.4,0-2.79,0-4.19
			c0.82-0.47,1.86,0.2,2.55-0.71c0-3.16,0-6.39,0-9.7c-7.98,0-15.94,0-23.99,0c0,3.35,0,6.72,0,10.22c0.81,0,1.59,0,2.42,0
			c0,3.5,0,6.87,0,10.31c-5.74,0-11.43,0-17.18,0c0-3.42,0-6.8,0-10.24c0.83,0,1.61,0,2.49,0c0-13.79,0-27.51,0-41.29
			c-0.76-0.32-1.62,0.04-2.48-0.22c0-3.37,0-6.74,0-10.19c5.72,0,11.41,0,17.17,0c0,3.39,0,6.77,0,10.26c-0.78,0-1.56,0-2.41,0
			c0,6.93,0,13.73,0,20.59c7.97,0,15.91,0,23.93,0c0-6.79,0-13.6,0-20.46c-0.73-0.28-1.55,0.02-2.38-0.2c0-3.38,0-6.75,0-10.2
			c5.64,0,11.3,0,17.04,0c0,3.36,0,6.73,0,10.17c-0.7,0.27-1.51-0.03-2.4,0.15C115.33,88.04,115.33,92.57,115.33,97.1z"/>
		<path class="st0" d="M97.57,135.51c2.1,3.75,4.36,7.42,6.64,11.06c1.93,3.26,3.87,6.53,5.86,9.89c0.57-0.95,1.05-1.73,1.51-2.51
			c3.2-5.35,6.39-10.71,9.59-16.06c0.54-0.86,1.08-1.72,1.72-2.74c-0.9,0-1.6,0-2.37,0c0-3.46,0-6.83,0-10.26
			c6.85,0,13.66,0,20.57,0c0.04,0.87,0.08,1.74,0.12,2.6c0,2.5,0,5.01,0,7.63c-2.17,0-4.19,0-6.24,0
			c-8.29,13.79-16.54,27.5-24.78,41.22c-0.46-0.12-0.51-0.52-0.69-0.81c-4.63-7.68-9.24-15.36-13.86-23.04
			c-0.22-0.37-0.48-0.73-0.72-1.09c-0.78-1.47-1.62-2.91-2.58-4.26c-0.37-0.68-0.74-1.37-1.2-2.2
			c-6.37,10.59-12.64,21.01-18.99,31.58c-8.34-13.87-16.59-27.59-24.87-41.36c-2.06,0-4.08,0-6.18,0c0-3.46,0-6.83,0-10.25
			c6.86,0,13.68,0,20.59,0c0,3.38,0,6.75,0,10.14c-0.69,0.29-1.42,0-2.27,0.22c4.2,7.03,8.38,14.02,12.67,21.19
			c6.35-10.57,12.62-21.03,18.96-31.58C93.25,128.47,95.41,131.99,97.57,135.51z"/>
		<path class="st0" d="M115.66,53.36c0,4.29,0,8.51,0,12.79c-4.02,0-7.99,0-12.03,0c0-0.81,0-1.55,0-2.39c-2.17,0-4.26,0-6.44,0
			c0,7.93,0,15.89,0,23.96c0.78,0,1.56,0,2.43,0c0,3.47,0,6.84,0,10.31c-5.65,0-11.33,0-17.09,0c0-3.35,0-6.73,0-10.24
			c0.79,0,1.61,0,2.47,0c0-8.11,0-16.08,0-24.12c-2.09,0-4.15,0-6.35,0c0,0.79,0,1.6,0,2.48c-4.1,0-8.07,0-12.09,0
			c0-4.26,0-8.48,0-12.79C82.91,53.36,99.22,53.36,115.66,53.36z"/>
		<path class="st2" d="M92.33,147.12c0.97,1.36,1.8,2.8,2.58,4.26c-1.94,0.86-3.71,2.07-5.73,2.77l0.01,0.02
			c0.24-1.43,1.07-2.63,1.63-3.93C91.29,149.19,91.83,148.16,92.33,147.12z"/>
		<path class="st2" d="M89.18,154.16c-0.03,0.05-0.06,0.1-0.1,0.15c-0.08-0.14-0.02-0.17,0.11-0.14
			C89.2,154.18,89.18,154.16,89.18,154.16z"/>
	</g>
</g>
</svg>
